<?xml version="1.0" standalone="no"?>
<!DOCTYPE svg PUBLIC "-//W3C//DTD SVG 20010904//EN"
 "http://www.w3.org/TR/2001/REC-SVG-20010904/DTD/svg10.dtd">
<svg version="1.0" xmlns="http://www.w3.org/2000/svg"
 width="500.000000pt" height="500.000000pt" viewBox="0 0 500.000000 500.000000"
 preserveAspectRatio="xMidYMid meet">

<g transform="translate(0.000000,500.000000) scale(0.100000,-0.100000)"
fill="#000000" stroke="none">
<path d="M3150 2975 c0 -34 1 -35 41 -35 l42 0 -7 -37 c-3 -21 -6 -59 -6 -85
l0 -48 -39 0 c-21 0 -53 3 -70 6 -30 6 -31 8 -31 60 0 51 1 54 25 54 16 0 25
6 25 15 0 12 -14 15 -65 15 -51 0 -65 -3 -65 -15 0 -9 9 -15 25 -15 24 0 25
-3 25 -55 l0 -55 -42 0 c-36 0 -48 6 -85 42 l-43 42 0 -196 c0 -194 0 -196 23
-202 12 -3 203 -6 425 -6 316 0 404 3 407 13 3 7 -3 37 -13 67 l-19 55 -51 3
-52 3 0 118 0 118 -37 7 c-21 3 -52 6 -69 6 -40 0 -44 -13 -44 -142 l0 -98
-35 0 -34 0 6 80 6 80 -72 0 -71 0 0 85 0 85 40 0 c39 0 40 1 40 35 0 24 -5
35 -15 35 -8 0 -15 -9 -15 -20 0 -14 -7 -20 -21 -20 -12 0 -23 8 -26 20 -3 11
-9 20 -13 20 -4 0 -10 -9 -13 -20 -3 -12 -14 -20 -26 -20 -14 0 -21 6 -21 20
0 11 -7 20 -15 20 -10 0 -15 -11 -15 -35z m-70 -295 c42 -42 8 -120 -52 -120
-58 0 -91 78 -51 122 22 24 77 24 103 -2z"/>
<path d="M3460 2950 l0 -40 70 0 70 0 0 34 c0 40 -11 46 -86 46 l-54 0 0 -40z"/>
<path d="M2130 2775 l0 -85 80 0 80 0 0 85 0 85 -80 0 -80 0 0 -85z"/>
<path d="M2620 2775 l0 -85 80 0 80 0 0 85 0 85 -80 0 -80 0 0 -85z"/>
<path d="M2370 2551 l0 -78 38 -7 c48 -8 96 -8 116 0 13 5 16 22 16 85 l0 79
-85 0 -85 0 0 -79z"/>
<path d="M1305 2265 l217 -224 39 19 c84 43 187 35 263 -21 22 -16 44 -29 50
-29 5 0 30 14 56 30 100 64 206 63 300 -2 l45 -31 40 23 c93 53 100 55 170 55
70 -1 85 -6 175 -61 24 -15 28 -14 84 20 100 60 200 58 293 -6 l46 -31 31 18
c135 81 235 84 332 10 41 -31 42 -31 90 2 21 15 59 32 83 38 43 11 44 14 132
166 l88 154 -887 5 -887 5 -72 43 -71 42 -417 0 -417 0 217 -225z m299 29 c50
-49 -24 -124 -76 -77 -36 33 -13 93 37 93 13 0 31 -7 39 -16z m160 0 c50 -49
-24 -124 -76 -77 -36 33 -13 93 37 93 13 0 31 -7 39 -16z m150 10 c27 -10 37
-40 25 -68 -22 -46 -82 -46 -100 1 -18 48 25 86 75 67z"/>
<path d="M2070 1855 c0 -3 -18 -88 -40 -190 -22 -102 -40 -187 -40 -190 0 -3
13 -5 30 -5 24 0 31 5 36 28 11 50 13 52 54 52 38 0 40 2 40 30 0 20 8 34 24
45 l24 16 -19 87 c-10 48 -21 97 -24 110 -4 18 -12 22 -45 22 -22 0 -40 -2
-40 -5z m69 -232 c1 -19 -4 -23 -29 -23 -34 0 -33 -3 -19 76 18 101 21 105 35
34 7 -36 13 -75 13 -87z"/>
<path d="M2299 1843 c-9 -10 -15 -49 -17 -109 -4 -87 -3 -92 18 -99 12 -4 25
-16 30 -28 6 -15 9 8 10 73 0 52 4 101 9 108 4 8 19 12 32 10 24 -3 24 -5 27
-131 2 -111 0 -128 -14 -134 -9 -3 -25 -1 -34 5 -15 9 -19 7 -23 -9 -3 -12
-14 -19 -29 -19 l-23 -1 24 -19 c13 -11 34 -20 47 -20 13 0 28 -9 34 -20 8
-14 21 -20 46 -20 32 0 34 2 24 21 -9 15 -8 24 1 35 20 24 13 333 -8 356 -22
25 -134 25 -154 1z"/>
<path d="M2528 1693 c-2 -93 1 -178 5 -189 9 -22 44 -34 98 -34 26 0 29 3 29
34 0 32 -2 34 -32 32 l-33 -1 -3 163 -2 162 -29 0 -29 0 -4 -167z"/>
<path d="M2658 1723 c3 -89 7 -130 12 -116 5 12 18 24 29 28 20 6 21 14 21
116 l0 109 -32 0 -33 0 3 -137z"/>
<path d="M2845 1838 c-3 -13 -14 -62 -24 -110 l-19 -87 24 -16 c16 -11 24 -25
24 -45 0 -28 2 -30 40 -30 41 0 43 -2 54 -52 5 -23 12 -28 36 -28 17 0 30 2
30 5 0 3 -18 89 -40 191 -22 103 -40 188 -40 190 0 2 -18 4 -40 4 -33 0 -41
-4 -45 -22z m61 -145 c18 -93 18 -93 -16 -93 -20 0 -30 5 -30 15 0 28 24 154
29 150 2 -3 10 -35 17 -72z"/>
<path d="M2211 1528 c-1 -20 4 -40 9 -43 12 -7 12 19 0 55 -7 22 -8 21 -9 -12z"/>
<path d="M2781 1549 c0 -9 -4 -31 -7 -48 -6 -29 -5 -31 25 -31 24 0 31 4 31
19 0 10 -9 21 -19 24 -11 2 -21 15 -24 28 -2 13 -5 17 -6 8z"/>
</g>
</svg>
